<svg width="30" height="30" viewBox="0 0 30 30" fill="none" xmlns="http://www.w3.org/2000/svg">
<path d="M17.5 23.75C17.5 21.7609 16.7098 19.8532 15.3033 18.4467C13.8968 17.0402 11.9891 16.25 10 16.25M10 16.25C8.01088 16.25 6.10322 17.0402 4.6967 18.4467C3.29018 19.8532 2.5 21.7609 2.5 23.75M10 16.25C12.7614 16.25 15 14.0114 15 11.25C15 8.48858 12.7614 6.25 10 6.25C7.23858 6.25 5 8.48858 5 11.25C5 14.0114 7.23858 16.25 10 16.25ZM27.5 23.75C27.5 21.7609 26.7098 19.8532 25.3033 18.4467C23.8968 17.0402 21.9891 16.25 20 16.25C21.3261 16.25 22.5979 15.7232 23.5355 14.7855C24.4732 13.8479 25 12.5761 25 11.25C25 9.92392 24.4732 8.65215 23.5355 7.71447C22.5979 6.77678 21.3261 6.25 20 6.25" stroke="#C30030" stroke-width="1.5" stroke-linecap="round" stroke-linejoin="round"/>
</svg>
